<?xml version="1.0"?><svg fill="#1A1A1A" xmlns="http://www.w3.org/2000/svg"  viewBox="0 0 50 50" width="512px" height="512px">    <path d="M 6 4 C 4.9 4 4 4.9 4 6 L 4 44 C 4 45.1 4.9 46 6 46 L 44 46 C 45.1 46 46 45.1 46 44 L 46 6 C 46 4.9 45.1 4 44 4 L 6 4 z M 29 14 C 35.07 14 40 18.93 40 25 C 40 31.07 35.07 36 29 36 L 24 36 L 19.5 36 C 14.26 36 10 31.74 10 26.5 C 10 21.26 14.26 17 19.5 17 C 20.11 17 20.699297 17.059922 21.279297 17.169922 C 23.269297 15.209922 25.99 14 29 14 z M 29 16 C 26.94 16 24.970859 16.700703 23.380859 17.970703 C 24.030859 18.300703 24.639219 18.700859 25.199219 19.130859 C 26.319219 18.390859 27.63 18 29 18 C 32.86 18 36 21.14 36 25 C 36 28.86 32.86 32 29 32 C 25.89 32 23.740937 29.650156 21.460938 27.160156 C 20.880938 26.520156 20.300937 25.889063 19.710938 25.289062 C 19.320938 24.899062 18.679063 24.899063 18.289062 25.289062 C 17.899062 25.679062 17.899062 26.320937 18.289062 26.710938 C 18.869063 27.280937 19.430234 27.899766 19.990234 28.509766 L 21.039062 29.650391 C 22.289063 30.980391 23.609922 32.229062 25.169922 33.039062 C 26.299922 33.629062 27.56 34 29 34 C 33.96 34 38 29.96 38 25 C 38 20.04 33.96 16 29 16 z M 19.5 19 C 15.36 19 12 22.36 12 26.5 C 12 30.64 15.36 34 19.5 34 C 20.44 34 21.360703 33.830234 22.220703 33.490234 C 21.580703 32.990234 20.989219 32.450156 20.449219 31.910156 C 20.139219 31.970156 19.82 32 19.5 32 C 16.47 32 14 29.53 14 26.5 C 14 23.47 16.47 21 19.5 21 C 21.78 21 23.700391 23.009063 25.400391 24.789062 C 25.710391 25.109062 25.999063 25.420938 26.289062 25.710938 C 26.679062 26.100938 27.320937 26.100938 27.710938 25.710938 C 28.100938 25.320938 28.100938 24.679063 27.710938 24.289062 C 27.430938 24.009062 27.139609 23.710156 26.849609 23.410156 C 26.049609 22.560156 25.160156 21.639375 24.160156 20.859375 C 23.700156 20.489375 23.219219 20.160859 22.699219 19.880859 C 21.729219 19.340859 20.67 19 19.5 19 z"/></svg>